<?xml version="1.0" standalone="no"?>
<!DOCTYPE svg PUBLIC "-//W3C//DTD SVG 20010904//EN"
 "http://www.w3.org/TR/2001/REC-SVG-20010904/DTD/svg10.dtd">
<svg version="1.0" xmlns="http://www.w3.org/2000/svg"
 width="256.000000pt" height="256.000000pt" viewBox="0 0 256.000000 256.000000"
 preserveAspectRatio="xMidYMid meet">
<metadata>
Created by potrace 1.14, written by Peter Selinger 2001-2017
</metadata>
<g transform="translate(0.000000,256.000000) scale(0.100000,-0.100000)"
fill="#000000" stroke="none">
<path d="M282 2331 c-69 -44 -79 -131 -21 -187 25 -24 39 -29 79 -29 40 0 54
5 79 29 100 96 -20 260 -137 187z"/>
<path d="M775 2340 c-60 -24 -91 -109 -62 -167 32 -60 56 -64 361 -61 274 3
274 3 300 27 59 55 52 144 -13 188 -33 23 -39 23 -300 22 -146 0 -275 -4 -286
-9z"/>
<path d="M1723 2335 c-91 -39 -80 -187 16 -216 106 -32 196 83 136 175 -34 52
-91 68 -152 41z"/>
<path d="M2193 2330 c-41 -24 -53 -48 -53 -103 0 -101 112 -151 193 -87 60 47
53 143 -12 187 -42 28 -86 29 -128 3z"/>
<path d="M278 1693 c-31 -20 -58 -69 -58 -106 0 -31 38 -88 70 -104 19 -10
194 -13 771 -13 l746 0 34 23 c65 44 72 133 13 188 l-26 24 -761 2 c-704 3
-764 1 -789 -14z"/>
<path d="M2204 1696 c-43 -19 -64 -53 -64 -104 0 -100 99 -154 181 -99 62 42
70 134 16 185 -29 28 -93 36 -133 18z"/>
<path d="M278 1052 c-31 -19 -58 -67 -58 -105 0 -38 41 -91 83 -104 51 -17
104 1 134 46 27 40 29 71 8 115 -29 61 -110 84 -167 48z"/>
<path d="M760 1057 c-36 -18 -62 -74 -56 -120 13 -107 152 -138 213 -48 27 40
29 71 8 115 -28 58 -105 83 -165 53z"/>
<path d="M1214 1036 c-29 -29 -34 -41 -34 -79 0 -56 34 -102 88 -117 41 -11
957 -14 1011 -4 41 8 86 54 95 94 7 40 -13 90 -49 118 -28 22 -29 22 -552 22
l-525 0 -34 -34z"/>
<path d="M278 414 c-33 -17 -58 -62 -58 -101 0 -41 35 -92 75 -109 46 -19 204
-19 250 0 40 17 75 68 75 111 0 39 -33 93 -66 105 -41 16 -244 12 -276 -6z"/>
<path d="M925 421 c-41 -17 -60 -50 -60 -106 0 -39 5 -59 20 -75 42 -48 63
-50 416 -50 281 0 336 2 364 16 62 29 84 94 56 163 -25 60 -33 61 -423 60
-194 0 -362 -4 -373 -8z"/>
<path d="M2014 396 c-29 -29 -34 -41 -34 -80 0 -39 6 -52 34 -84 l34 -37 124
0 c141 0 165 10 193 79 20 48 7 94 -36 131 -29 24 -36 25 -156 25 l-125 0 -34
-34z"/>
</g>
</svg>
