<svg width="108" height="37" viewBox="0 0 108 37" xmlns="http://www.w3.org/2000/svg">
  <title>logo-topax</title>
  <g fill="none" fill-rule="evenodd">
    <path d="M.329 3.753V.701h15.464v3.052h-5.634v18.56H5.964V3.753H.329zM28.255 22.726c-1.728 0-3.25-.289-4.565-.866a10.344 10.344 0 0 1-3.373-2.351c-.905-.99-1.604-2.186-2.097-3.547-.494-1.361-.7-2.846-.7-4.455 0-1.567.247-3.01.74-4.372a11.136 11.136 0 0 1 2.098-3.588c.905-1.031 2.057-1.815 3.373-2.392 1.316-.578 2.838-.866 4.524-.866 1.933 0 3.578.33 4.935 1.03a9.675 9.675 0 0 1 3.331 2.64 10.125 10.125 0 0 1 1.851 3.63c.37 1.32.576 2.68.576 3.96 0 1.484-.247 2.887-.7 4.206-.493 1.361-1.15 2.558-2.056 3.589-.904 1.03-2.015 1.856-3.372 2.516-1.316.577-2.838.866-4.565.866zm0-19.426c-1.028 0-1.933.206-2.715.66a6.115 6.115 0 0 0-1.933 1.773c-.534.742-.905 1.609-1.192 2.598-.247.99-.412 2.021-.412 3.135 0 1.031.124 2.02.412 3.01a7.53 7.53 0 0 0 1.192 2.6 6.384 6.384 0 0 0 1.933 1.855c.782.454 1.687.701 2.715.701.822 0 1.604-.165 2.344-.536.74-.371 1.398-.907 1.974-1.608.576-.702 1.028-1.526 1.398-2.558.33-1.03.535-2.185.535-3.464 0-1.155-.123-2.268-.411-3.258-.288-.99-.7-1.856-1.234-2.599-.535-.742-1.193-1.278-1.974-1.69-.782-.413-1.645-.62-2.632-.62zM58.442 7.053c0 .99-.205 1.897-.575 2.68-.37.784-.905 1.444-1.563 2.022a7.466 7.466 0 0 1-2.18 1.36 9.22 9.22 0 0 1-2.55.62 8.385 8.385 0 0 1-1.44 0 7.387 7.387 0 0 1-1.562-.29c.123-.288.247-.577.411-.865.165-.29.33-.578.535-.867.205-.247.452-.495.699-.66.247-.164.576-.288.905-.33a2.908 2.908 0 0 0 1.151-.37c.37-.207.658-.496.946-.784.247-.33.494-.701.617-1.155.124-.454.247-.908.247-1.361 0-.536-.082-.99-.288-1.444a3.406 3.406 0 0 0-.864-1.155c-.37-.33-.781-.618-1.316-.783-.493-.206-1.069-.289-1.686-.289h-.7c-.205 0-.37 0-.534.041-.164 0-.37.042-.576.042-.205 0-.41.04-.699.082v18.807h-4.277V.99c.781-.124 1.48-.248 2.097-.33.617-.083 1.152-.165 1.687-.206l1.48-.124c.494 0 .987-.041 1.522-.041 1.193 0 2.303.165 3.331.495 1.029.33 1.933.783 2.674 1.36.781.578 1.357 1.28 1.81 2.145.493.784.698 1.733.698 2.764zM63.419 17.611l-1.563 4.743h-4.195L65.393.742h4.154l7.732 21.612h-4.4L67.531 6.27l-.247-1.113-.247 1.154-2.509 7.713-.37.578.453-.042h2.262c.452 0 .822.083 1.11.289.33.206.576.454.823.742.246.29.452.62.617.99.164.371.287.701.41 1.031H63.42z"
          fill="#1D1D1D"/>
    <path d="M84.517 22.313h-4.524l5.882-9.651c.164.248.37.577.617 1.031.246.413.41.866.575 1.361.165.495.247.99.247 1.526s-.123 1.031-.37 1.485l-2.427 4.248zM80.322.701h4.689l3.66 7.094.288.908.247-.908 3.66-7.094h4.607l-6.457 10.682L108 36.913h-6.169L80.322.702z"
          fill="#1282C4"/>
  </g>
</svg>
