<svg height="40" viewBox="0 0 80 80" width="40" xmlns="http://www.w3.org/2000/svg" xmlns:xlink="http://www.w3.org/1999/xlink"><mask id="a" fill="#fff"><path d="m20.007.283v7.434h-19.532v-7.434z" fill="#fff" fill-rule="evenodd"/></mask><mask id="b" fill="#fff"><path d="m.145 0h43.717v7.433h-43.717z" fill="#fff" fill-rule="evenodd"/></mask><g fill="#27d79d" fill-rule="evenodd"><path d="m16.29 7.717h-12.097a3.717 3.717 0 0 1 0-7.434h12.097a3.717 3.717 0 1 1 0 7.434" mask="url(#a)" transform="translate(60 36)"/><path d="m15.815 43.717h-12.099a3.717 3.717 0 0 1 0-7.434h12.099a3.717 3.717 0 1 1 0 7.434m54.425-18.142h-18.142a3.717 3.717 0 0 1 0-7.434h18.142a3.717 3.717 0 1 1 0 7.434m0 36.283h-18.142a3.717 3.717 0 0 1 0-7.434h18.142a3.717 3.717 0 1 1 0 7.434m-12.095 18.142h-36.283a3.717 3.717 0 1 1 0-7.433h36.283a3.716 3.716 0 1 1 0 7.433"/><path d="m40.145 7.433h-36.283a3.717 3.717 0 1 1 0-7.434h36.283a3.717 3.717 0 1 1 0 7.434" mask="url(#b)" transform="translate(18)"/><path d="m27.91 25.575h-18.142a3.717 3.717 0 0 1 0-7.434h18.142a3.717 3.717 0 1 1 0 7.434m0 36.283h-18.142a3.717 3.717 0 0 1 0-7.434h18.142a3.717 3.717 0 1 1 0 7.434m8.377-21.861a3.717 3.717 0 1 1 7.433 0 3.717 3.717 0 0 1 -7.433 0m0-12.091a3.717 3.717 0 1 1 7.433 0 3.717 3.717 0 0 1 -7.433 0m-12.093 12.091a3.717 3.717 0 1 1 7.433 0 3.717 3.717 0 0 1 -7.433 0m24.187 0a3.717 3.717 0 1 1 7.434 0 3.717 3.717 0 0 1 -7.434 0m-12.096 12.099a3.717 3.717 0 1 1 7.433 0 3.717 3.717 0 0 1 -7.433 0"/></g></svg>