<svg xmlns="http://www.w3.org/2000/svg" width="40" height="40" viewBox="0 0 80 80">
    <g fill="#27D79D" fill-rule="evenodd">
        <path d="M24.188 15.779a3.718 3.718 0 1 1 7.435-.001 3.718 3.718 0 0 1-7.436 0M36.282 15.779a3.719 3.719 0 1 1 7.437 0 3.719 3.719 0 0 1-7.437 0M48.378 15.779a3.718 3.718 0 1 1 7.436 0 3.718 3.718 0 0 1-7.436 0M24.188 27.873a3.717 3.717 0 1 1 7.433 0 3.717 3.717 0 0 1-7.433 0M12.089 27.873a3.717 3.717 0 1 1 7.433 0 3.717 3.717 0 0 1-7.433 0M36.282 27.873a3.718 3.718 0 1 1 7.436.002 3.718 3.718 0 0 1-7.436-.002M48.378 27.873a3.717 3.717 0 1 1 7.434 0 3.717 3.717 0 0 1-7.434 0M66.527 39.969a3.718 3.718 0 1 1 7.436 0 3.718 3.718 0 0 1-7.436 0M54.433 39.969a3.718 3.718 0 1 1 7.435 0 3.718 3.718 0 0 1-7.435 0M42.338 39.969a3.719 3.719 0 1 1 7.437 0 3.719 3.719 0 0 1-7.437 0M30.243 39.969a3.719 3.719 0 1 1 7.437 0 3.719 3.719 0 0 1-7.437 0M18.15 39.969a3.718 3.718 0 1 1 7.435-.001 3.718 3.718 0 0 1-7.436 0M6.055 39.969a3.718 3.718 0 1 1 7.435 0 3.718 3.718 0 0 1-7.435 0M60.48 27.873a3.718 3.718 0 1 1 7.437.001 3.718 3.718 0 0 1-7.437 0M24.188 52.074a3.718 3.718 0 1 1 7.435 0 3.718 3.718 0 0 1-7.436 0M12.089 52.074a3.718 3.718 0 1 1 7.435 0 3.718 3.718 0 0 1-7.435 0M36.282 52.074a3.719 3.719 0 1 1 7.437.001 3.719 3.719 0 0 1-7.437-.001M48.378 52.074a3.718 3.718 0 1 1 7.436 0 3.718 3.718 0 0 1-7.436 0M60.48 52.074a3.718 3.718 0 1 1 7.436 0 3.718 3.718 0 0 1-7.436 0M24.188 64.233a3.718 3.718 0 1 1 7.435 0 3.718 3.718 0 0 1-7.436 0M36.282 64.233a3.719 3.719 0 1 1 7.437.001 3.719 3.719 0 0 1-7.437 0M48.378 64.233a3.718 3.718 0 1 1 7.436 0 3.718 3.718 0 0 1-7.436 0"/>
    </g>
</svg>
