<svg height="40" viewBox="0 0 80 80" width="40" xmlns="http://www.w3.org/2000/svg" xmlns:xlink="http://www.w3.org/1999/xlink"><mask id="a" fill="#fff"><path d="m0 7.76v-7.435h49.765v7.435z" fill="#fff" fill-rule="evenodd"/></mask><g fill="#27d79d" fill-rule="evenodd"><path d="m72.565 3.734a3.718 3.718 0 1 1 7.436 0 3.718 3.718 0 0 1 -7.436 0m0 72.548a3.718 3.718 0 1 1 7.436 0 3.718 3.718 0 0 1 -7.436 0m3.718-32.522h-18.146a3.717 3.717 0 1 1 0-7.435h18.146a3.717 3.717 0 0 1 0 7.435m-12.108-36.306h-18.145a3.718 3.718 0 1 1 0-7.436h18.146a3.719 3.719 0 0 1 0 7.436"/><path d="m46.047 7.76h-42.33a3.718 3.718 0 1 1 0-7.435h42.33a3.718 3.718 0 1 1 0 7.435" mask="url(#a)" transform="translate(0 36)"/><path d="m58.145 25.581h-36.292a3.718 3.718 0 1 1 0-7.436h36.292a3.718 3.718 0 1 1 0 7.436m5.767 54.419h-17.864a3.717 3.717 0 1 1 0-7.435h17.864a3.717 3.717 0 1 1 0 7.435m-5.767-18.127h-36.287a3.719 3.719 0 0 1 0-7.436h36.287a3.718 3.718 0 1 1 0 7.436m18.138.011h-6.043a3.717 3.717 0 1 1 0-7.435h6.043a3.717 3.717 0 0 1 0 7.435m0-36.32h-6.043a3.717 3.717 0 1 1 0-7.435h6.043a3.717 3.717 0 0 1 0 7.435"/></g></svg>